<svg width="20" height="20" viewBox="0 0 20 20" fill="none" xmlns="http://www.w3.org/2000/svg">
<path d="M9.52485 0.294894C9.56867 0.206355 9.63637 0.131826 9.7203 0.0797188C9.80423 0.0276116 9.90106 0 9.99985 0C10.0986 0 10.1955 0.0276116 10.2794 0.0797188C10.3633 0.131826 10.431 0.206355 10.4748 0.294894L12.7848 4.97389C12.937 5.28186 13.1617 5.5483 13.4395 5.75035C13.7173 5.95239 14.04 6.08401 14.3798 6.13389L19.5458 6.88989C19.6437 6.90408 19.7357 6.94537 19.8113 7.00909C19.887 7.07282 19.9433 7.15644 19.9739 7.2505C20.0045 7.34456 20.0081 7.4453 19.9844 7.54133C19.9607 7.63736 19.9107 7.72485 19.8398 7.79389L16.1038 11.4319C15.8575 11.672 15.6731 11.9684 15.5667 12.2955C15.4602 12.6227 15.4349 12.9708 15.4928 13.3099L16.3748 18.4499C16.3921 18.5477 16.3816 18.6485 16.3443 18.7406C16.3071 18.8327 16.2448 18.9125 16.1644 18.9709C16.084 19.0293 15.9888 19.0639 15.8897 19.0708C15.7906 19.0777 15.6915 19.0566 15.6038 19.0099L10.9858 16.5819C10.6816 16.4221 10.343 16.3386 9.99935 16.3386C9.65567 16.3386 9.31713 16.4221 9.01285 16.5819L4.39585 19.0099C4.30818 19.0563 4.20924 19.0772 4.1103 19.0701C4.01135 19.0631 3.91636 19.0285 3.83614 18.9701C3.75592 18.9118 3.69368 18.8321 3.6565 18.7401C3.61933 18.6482 3.6087 18.5476 3.62585 18.4499L4.50685 13.3109C4.56504 12.9716 4.53983 12.6233 4.43338 12.2959C4.32694 11.9686 4.14245 11.672 3.89585 11.4319L0.159847 7.79489C0.0884404 7.72593 0.0378398 7.63829 0.013809 7.54197C-0.0102218 7.44565 -0.0067165 7.34451 0.0239253 7.25008C0.0545672 7.15566 0.111114 7.07174 0.187123 7.00788C0.263133 6.94402 0.35555 6.90279 0.453846 6.88889L5.61885 6.13389C5.9591 6.08439 6.28224 5.95295 6.56043 5.75088C6.83863 5.54881 7.06355 5.28216 7.21585 4.97389L9.52485 0.294894Z" fill="#FECE00"/>
</svg>
